<svg xmlns="http://www.w3.org/2000/svg" style="display: none;">
  <symbol id="circle-spikes" viewBox="0 0 342 342">
    <circle cx="171" cy="171" r="150" fill="none" stroke="currentColor" stroke-width="2"/>
  </symbol>
  <symbol id="star2" viewBox="0 0 18 19">
    <path d="M9 0L11 6L17 7L12 11L13 17L9 14L5 17L6 11L1 7L7 6Z" fill="currentColor"/>
  </symbol>
  <symbol id="arrow-prev" viewBox="0 0 18 14">
    <path d="M17 7H1M1 7L7 1M1 7L7 13" stroke="currentColor" stroke-width="2" fill="none"/>
  </symbol>
  <symbol id="arrow-next" viewBox="0 0 18 14">
    <path d="M1 7H17M17 7L11 1M17 7L11 13" stroke="currentColor" stroke-width="2" fill="none"/>
  </symbol>
  <symbol id="arrow-right" viewBox="0 0 103 85">
    <path d="M1 42.5H102M102 42.5L60 1M102 42.5L60 84" stroke="currentColor" stroke-width="2" fill="none"/>
  </symbol>
  <symbol id="twitter-icon" viewBox="0 0 512 512">
    <path d="M389.2 48h70.6L305.6 224.2 487 464H345L233.7 318.6 106.5 464H35.8L200.7 275.5 26.8 48H172.4L272.9 180.9 389.2 48zM364.4 421.8h39.1L151.1 88h-42L364.4 421.8z" fill="currentColor"/>
  </symbol>
  <symbol id="facebook-icon" viewBox="0 0 320 512">
    <path d="M279.14 288l14.22-92.66h-88.91v-60.13c0-25.35 12.42-50.06 52.24-50.06h40.42V6.26S260.43 0 225.36 0c-73.22 0-121.08 44.38-121.08 124.72v70.62H22.89V288h81.39v224h100.17V288z" fill="currentColor"/>
  </symbol>
  <symbol id="linkedin-icon" viewBox="0 0 448 512">
    <path d="M100.28 448H7.4V148.9h92.88zM53.79 108.1C24.09 108.1 0 83.5 0 53.8a53.79 53.79 0 0 1 107.58 0c0 29.7-24.1 54.3-53.79 54.3zM447.9 448h-92.68V302.4c0-34.7-.7-79.2-48.29-79.2-48.29 0-55.69 37.7-55.69 76.7V448h-92.78V148.9h89.08v40.8h1.3c12.4-23.5 42.69-48.3 87.88-48.3 94 0 111.28 61.9 111.28 142.3V448z" fill="currentColor"/>
  </symbol>
  <symbol id="arrow-min-right" viewBox="0 0 23 22">
    <path fill-rule="evenodd" clip-rule="evenodd" fill="currentColor" d="M0.0963812 8.98858L0.0888474 13.0029L14.5373 13.0037L9.17376 18.3673L11.9233 21.0867L22.0102 10.9999L11.9158 0.905566L9.16671 3.65467L14.5298 8.98858L0.0963812 8.98858ZM10.5824 3.65315L16.9537 9.98858H1.09451L1.09073 12.0037L16.9515 12.0037L10.5919 18.3634L11.9195 19.6764L20.5959 10.9999L11.9158 2.31978L10.5824 3.65315Z"/>
  </symbol>
  <symbol id="arrows-decor-rtbl" viewBox="0 0 167 297">
    <path fill="currentColor" d="M87.3118 28.5592H86.3118V27.5592H87.3118V28.5592ZM101.051 28.5592V27.5592H102.054L102.051 28.562L101.051 28.5592ZM100.976 55.285L101.683 55.9921L99.969 57.7061L99.9759 55.2822L100.976 55.285ZM137.037 19.2239L136.33 18.5168L137.036 17.8111L137.743 18.5155L137.037 19.2239ZM147.087 29.2367L147.793 28.5283L148.503 29.2354L147.794 29.9438L147.087 29.2367ZM110.989 65.3354V66.3354H108.574L110.282 64.6283L110.989 65.3354ZM137.79 65.3354V64.3354H138.795L138.79 65.341L137.79 65.3354ZM137.714 78.9995L138.714 79.005L138.709 79.9995H137.714V78.9995ZM87.3118 78.9995V79.9995H86.3118V78.9995H87.3118ZM87.3118 27.5592H101.051V29.5592H87.3118V27.5592ZM102.051 28.562L101.976 55.2878L99.9759 55.2822L100.051 28.5564L102.051 28.562ZM100.269 54.5779L136.33 18.5168L137.744 19.931L101.683 55.9921L100.269 54.5779ZM137.743 18.5155L147.793 28.5283L146.382 29.9452L136.331 19.9324L137.743 18.5155ZM147.794 29.9438L111.696 66.0426L110.282 64.6283L146.38 28.5296L147.794 29.9438ZM110.989 64.3354H137.79V66.3354H110.989V64.3354ZM138.79 65.341L138.714 79.005L136.715 78.994L136.79 65.3299L138.79 65.341ZM137.714 79.9995H87.3118V77.9995H137.714V79.9995ZM86.3118 78.9995V28.5592H88.3118V78.9995H86.3118Z"/>
    <path fill="currentColor" d="M87.3118 190.559H86.3118V189.559H87.3118V190.559ZM101.051 190.559V189.559H102.054L102.051 190.562L101.051 190.559ZM100.976 217.285L101.683 217.992L99.969 219.706L99.9759 217.282L100.976 217.285ZM137.037 181.224L136.33 180.517L137.036 179.811L137.743 180.516L137.037 181.224ZM147.087 191.237L147.793 190.528L148.503 191.235L147.794 191.944L147.087 191.237ZM110.989 227.335V228.335H108.574L110.282 226.628L110.989 227.335ZM137.79 227.335V226.335H138.795L138.79 227.341L137.79 227.335ZM137.714 241L138.714 241.005L138.709 242H137.714V241ZM87.3118 241V242H86.3118V241H87.3118ZM87.3118 189.559H101.051V191.559H87.3118V189.559ZM102.051 190.562L101.976 217.288L99.9759 217.282L100.051 190.556L102.051 190.562ZM100.269 216.578L136.33 180.517L137.744 181.931L101.683 217.992L100.269 216.578ZM137.743 180.516L147.793 190.528L146.382 191.945L136.331 181.932L137.743 180.516ZM147.794 191.944L111.696 228.043L110.282 226.628L146.38 190.53L147.794 191.944ZM110.989 226.335H137.79V228.335H110.989V226.335ZM138.79 227.341L138.714 241.005L136.715 240.994L136.79 227.33L138.79 227.341ZM137.714 242H87.3118V240H137.714V242ZM86.3118 241V190.559H88.3118V241H86.3118Z"/>
    <path fill="currentColor" d="M87.3118 109.559H86.3118V108.559H87.3118V109.559ZM101.051 109.559V108.559H102.054L102.051 109.562L101.051 109.559ZM100.976 136.285L101.683 136.992L99.969 138.706L99.9759 136.282L100.976 136.285ZM137.037 100.224L136.33 99.5168L137.036 98.8111L137.743 99.5155L137.037 100.224ZM147.087 110.237L147.793 109.528L148.503 110.235L147.794 110.944L147.087 110.237ZM110.989 146.335V147.335H108.574L110.282 145.628L110.989 146.335ZM137.79 146.335V145.335H138.795L138.79 146.341L137.79 146.335ZM137.714 160L138.714 160.005L138.709 161H137.714V160ZM87.3118 160V161H86.3118V160H87.3118ZM87.3118 108.559H101.051V110.559H87.3118V108.559ZM102.051 109.562L101.976 136.288L99.9759 136.282L100.051 109.556L102.051 109.562ZM100.269 135.578L136.33 99.5168L137.744 100.931L101.683 136.992L100.269 135.578ZM137.743 99.5155L147.793 109.528L146.382 110.945L136.331 100.932L137.743 99.5155ZM147.794 110.944L111.696 147.043L110.282 145.628L146.38 109.53L147.794 110.944ZM110.989 145.335H137.79V147.335H110.989V145.335ZM138.79 146.341L138.714 160.005L136.715 159.994L136.79 146.33L138.79 146.341ZM137.714 161H87.3118V159H137.714V161ZM86.3118 160V109.559H88.3118V160H86.3118Z"/>
    <path fill="currentColor" d="M13.3118 82.5592H12.3118V81.5592H13.3118V82.5592ZM27.0511 82.5592V81.5592H28.054L28.0511 82.562L27.0511 82.5592ZM26.9759 109.285L27.683 109.992L25.969 111.706L25.9759 109.282L26.9759 109.285ZM63.0369 73.2239L62.3298 72.5168L63.0356 71.8111L63.7427 72.5155L63.0369 73.2239ZM73.0874 83.2367L73.7931 82.5283L74.5029 83.2354L73.7945 83.9438L73.0874 83.2367ZM36.9886 119.335V120.335H34.5744L36.2815 118.628L36.9886 119.335ZM63.7898 119.335V118.335H64.7953L64.7898 119.341L63.7898 119.335ZM63.7145 133L64.7145 133.005L64.709 134H63.7145V133ZM13.3118 133V134H12.3118V133H13.3118ZM13.3118 81.5592H27.0511V83.5592H13.3118V81.5592ZM28.0511 82.562L27.9758 109.288L25.9759 109.282L26.0511 82.5564L28.0511 82.562ZM26.2687 108.578L62.3298 72.5168L63.744 73.931L27.683 109.992L26.2687 108.578ZM63.7427 72.5155L73.7931 82.5283L72.3816 83.9452L62.3312 73.9324L63.7427 72.5155ZM73.7945 83.9438L37.6957 120.043L36.2815 118.628L72.3803 82.5296L73.7945 83.9438ZM36.9886 118.335H63.7898V120.335H36.9886V118.335ZM64.7898 119.341L64.7145 133.005L62.7145 132.994L62.7898 119.33L64.7898 119.341ZM63.7145 134H13.3118V132H63.7145V134ZM12.3118 133V82.5592H14.3118V133H12.3118Z"/>
    <path fill="currentColor" d="M13.3118 244.559H12.3118V243.559H13.3118V244.559ZM27.0511 244.559V243.559H28.054L28.0511 244.562L27.0511 244.559ZM26.9759 271.285L27.683 271.992L25.969 273.706L25.9759 271.282L26.9759 271.285ZM63.0369 235.224L62.3298 234.517L63.0356 233.811L63.7427 234.516L63.0369 235.224ZM73.0874 245.237L73.7931 244.528L74.5029 245.235L73.7945 245.944L73.0874 245.237ZM36.9886 281.335V282.335H34.5744L36.2815 280.628L36.9886 281.335ZM63.7898 281.335V280.335H64.7953L64.7898 281.341L63.7898 281.335ZM63.7145 295L64.7145 295.005L64.709 296H63.7145V295ZM13.3118 295V296H12.3118V295H13.3118ZM13.3118 243.559H27.0511V245.559H13.3118V243.559ZM28.0511 244.562L27.9758 271.288L25.9759 271.282L26.0511 244.556L28.0511 244.562ZM26.2687 270.578L62.3298 234.517L63.744 235.931L27.683 271.992L26.2687 270.578ZM63.7427 234.516L73.7931 244.528L72.3816 245.945L62.3312 235.932L63.7427 234.516ZM73.7945 245.944L37.6957 282.043L36.2815 280.628L72.3803 244.53L73.7945 245.944ZM36.9886 280.335H63.7898V282.335H36.9886V280.335ZM64.7898 281.341L64.7145 295.005L62.7145 294.994L62.7898 281.33L64.7898 281.341ZM63.7145 296H13.3118V294H63.7145V296ZM12.3118 295V244.559H14.3118V295H12.3118Z"/>
    <path fill="currentColor" d="M13.3118 163.559H12.3118V162.559H13.3118V163.559ZM27.0511 163.559V162.559H28.054L28.0511 163.562L27.0511 163.559ZM26.9759 190.285L27.683 190.992L25.969 192.706L25.9759 190.282L26.9759 190.285ZM63.0369 154.224L62.3298 153.517L63.0356 152.811L63.7427 153.516L63.0369 154.224ZM73.0874 164.237L73.7931 163.528L74.5029 164.235L73.7945 164.944L73.0874 164.237ZM36.9886 200.335V201.335H34.5744L36.2815 199.628L36.9886 200.335ZM63.7898 200.335V199.335H64.7953L64.7898 200.341L63.7898 200.335ZM63.7145 214L64.7145 214.005L64.709 215H63.7145V214ZM13.3118 214V215H12.3118V214H13.3118ZM13.3118 162.559H27.0511V164.559H13.3118V162.559ZM28.0511 163.562L27.9758 190.288L25.9759 190.282L26.0511 163.556L28.0511 163.562ZM26.2687 189.578L62.3298 153.517L63.744 154.931L27.683 190.992L26.2687 189.578ZM63.7427 153.516L73.7931 163.528L72.3816 164.945L62.3312 154.932L63.7427 153.516ZM73.7945 164.944L37.6957 201.043L36.2815 199.628L72.3803 163.53L73.7945 164.944ZM36.9886 199.335H63.7898V201.335H36.9886V199.335ZM64.7898 200.341L64.7145 214.005L62.7145 213.994L62.7898 200.33L64.7898 200.341ZM63.7145 215H13.3118V213H63.7145V215ZM12.3118 214V163.559H14.3118V214H12.3118Z"/>
  </symbol>
</svg>
